<svg xmlns="http://www.w3.org/2000/svg" width="1200" height="340" viewBox="0 0 1200 340" role="img" aria-labelledby="t"><title id="t">Adrián Jiménez Santiago, Software Developer at Indra Espacio</title><style>
    .eyebrow{font:600 13px -apple-system,BlinkMacSystemFont,'Segoe UI','Helvetica Neue',Helvetica,Arial,sans-serif;letter-spacing:.32em;fill:#d9b36c}
    .name{font:400 58px 'Iowan Old Style','Palatino Linotype',Palatino,Georgia,'Times New Roman',serif;fill:#ece6d8;letter-spacing:-.01em}
    .sub{font:400 19px -apple-system,BlinkMacSystemFont,'Segoe UI','Helvetica Neue',Helvetica,Arial,sans-serif;fill:#8d97a6}
    .meta{font:500 13px ui-monospace,SFMono-Regular,'SF Mono',Menlo,Consolas,'Liberation Mono',monospace;fill:#8d97a6;letter-spacing:.04em}
    .meta b{fill:#d9b36c}
    .in{opacity:0;animation:in 1.1s cubic-bezier(.2,.7,.2,1) forwards}
    .d1{animation-delay:.15s}.d2{animation-delay:.35s}.d3{animation-delay:.6s}.d4{animation-delay:.85s}
    @keyframes in{from{opacity:0;transform:translateY(10px)}to{opacity:1;transform:none}}
    .tw{animation:tw 4.5s ease-in-out infinite}
    @keyframes tw{0%,100%{opacity:.15}50%{opacity:.9}}
    .line{stroke-dasharray:240;stroke-dashoffset:240;animation:draw 1.4s .4s ease forwards}
    @keyframes draw{to{stroke-dashoffset:0}}
    .glow{animation:glow 6s ease-in-out infinite}
    @keyframes glow{0%,100%{opacity:.55}50%{opacity:.9}}
    @media (prefers-reduced-motion: reduce){*{animation:none!important}.in,.ln{opacity:1!important;transform:none!important}.b,.bar{transform:none!important}.line{stroke-dashoffset:0!important}}</style>
    <defs>
      <radialGradient id="halo" cx="78%" cy="50%" r="55%">
        <stop offset="0" stop-color="#d9b36c" stop-opacity=".16"/>
        <stop offset="1" stop-color="#d9b36c" stop-opacity="0"/>
      </radialGradient>
      <radialGradient id="planet" cx="35%" cy="30%" r="75%">
        <stop offset="0" stop-color="#f1d79c"/>
        <stop offset=".55" stop-color="#d9b36c"/>
        <stop offset="1" stop-color="#10161f"/>
      </radialGradient>
      <linearGradient id="hair" x1="0" x2="1">
        <stop offset="0" stop-color="#d9b36c"/><stop offset="1" stop-color="#d9b36c" stop-opacity="0"/>
      </linearGradient>
      <clipPath id="frame"><rect width="1200" height="340" rx="18"/></clipPath>
    </defs>
    <g clip-path="url(#frame)">
      <rect width="1200" height="340" fill="#10161f"/>
      <rect width="1200" height="340" fill="url(#halo)" class="glow"/>
      <circle class="tw" cx="391.4" cy="56.9" r="0.6" fill="#ece6d8" opacity="0.49" style="animation-delay:0.4s"/><circle class="" cx="441.0" cy="26.8" r="1.3" fill="#ece6d8" opacity="0.29" style="animation-delay:1.3s"/><circle class="tw" cx="660.4" cy="27.2" r="1.3" fill="#ece6d8" opacity="0.35" style="animation-delay:0.7s"/><circle class="" cx="750.9" cy="315.1" r="1.3" fill="#ece6d8" opacity="0.27" style="animation-delay:3.5s"/><circle class="" cx="648.2" cy="193.0" r="1.3" fill="#ece6d8" opacity="0.33" style="animation-delay:4.9s"/><circle class="" cx="696.6" cy="215.0" r="0.8" fill="#ece6d8" opacity="0.57" style="animation-delay:0.6s"/><circle class="tw" cx="676.2" cy="208.6" r="1.0" fill="#ece6d8" opacity="0.44" style="animation-delay:4.1s"/><circle class="tw" cx="948.5" cy="234.5" r="0.8" fill="#ece6d8" opacity="0.39" style="animation-delay:0.5s"/><circle class="" cx="1113.0" cy="144.6" r="0.6" fill="#ece6d8" opacity="0.51" style="animation-delay:4.6s"/><circle class="tw" cx="1044.6" cy="109.7" r="0.8" fill="#ece6d8" opacity="0.51" style="animation-delay:3.6s"/><circle class="" cx="548.1" cy="280.1" r="0.8" fill="#ece6d8" opacity="0.55" style="animation-delay:2.8s"/><circle class="tw" cx="774.2" cy="329.8" r="1.0" fill="#ece6d8" opacity="0.42" style="animation-delay:1.7s"/><circle class="" cx="799.7" cy="15.3" r="1.0" fill="#ece6d8" opacity="0.52" style="animation-delay:2.1s"/><circle class="" cx="479.1" cy="305.0" r="1.0" fill="#ece6d8" opacity="0.45" style="animation-delay:0.5s"/><circle class="" cx="658.5" cy="294.2" r="1.0" fill="#ece6d8" opacity="0.38" style="animation-delay:5.2s"/><circle class="" cx="1054.9" cy="318.3" r="0.8" fill="#ece6d8" opacity="0.32" style="animation-delay:0.5s"/><circle class="" cx="787.7" cy="11.9" r="1.3" fill="#ece6d8" opacity="0.38" style="animation-delay:1.1s"/><circle class="" cx="730.0" cy="111.2" r="0.8" fill="#ece6d8" opacity="0.48" style="animation-delay:4.1s"/><circle class="" cx="739.2" cy="227.1" r="0.6" fill="#ece6d8" opacity="0.64" style="animation-delay:2.7s"/><circle class="tw" cx="1135.0" cy="228.5" r="1.3" fill="#ece6d8" opacity="0.43" style="animation-delay:2.4s"/><circle class="" cx="81.7" cy="29.8" r="0.8" fill="#ece6d8" opacity="0.30" style="animation-delay:2.6s"/><circle class="tw" cx="719.3" cy="41.2" r="1.3" fill="#ece6d8" opacity="0.30" style="animation-delay:0.9s"/><circle class="" cx="438.5" cy="16.3" r="0.8" fill="#ece6d8" opacity="0.32" style="animation-delay:3.7s"/><circle class="tw" cx="439.2" cy="47.8" r="1.0" fill="#ece6d8" opacity="0.46" style="animation-delay:6.0s"/><circle class="" cx="580.9" cy="35.8" r="0.6" fill="#ece6d8" opacity="0.58" style="animation-delay:4.5s"/><circle class="" cx="1135.2" cy="125.2" r="1.3" fill="#ece6d8" opacity="0.59" style="animation-delay:5.5s"/><circle class="tw" cx="115.8" cy="281.9" r="1.3" fill="#ece6d8" opacity="0.33" style="animation-delay:2.2s"/><circle class="" cx="922.0" cy="180.6" r="1.3" fill="#ece6d8" opacity="0.35" style="animation-delay:2.0s"/><circle class="" cx="968.8" cy="327.1" r="0.8" fill="#ece6d8" opacity="0.62" style="animation-delay:4.8s"/><circle class="tw" cx="884.0" cy="81.5" r="1.3" fill="#ece6d8" opacity="0.58" style="animation-delay:3.0s"/><circle class="" cx="1179.7" cy="264.0" r="1.0" fill="#ece6d8" opacity="0.56" style="animation-delay:1.6s"/><circle class="" cx="1140.5" cy="152.9" r="0.8" fill="#ece6d8" opacity="0.41" style="animation-delay:5.7s"/><circle class="" cx="746.9" cy="299.7" r="0.6" fill="#ece6d8" opacity="0.54" style="animation-delay:2.9s"/><circle class="tw" cx="954.8" cy="35.5" r="0.6" fill="#ece6d8" opacity="0.60" style="animation-delay:5.5s"/><circle class="" cx="896.2" cy="162.9" r="0.8" fill="#ece6d8" opacity="0.54" style="animation-delay:2.6s"/><circle class="" cx="110.7" cy="314.6" r="1.0" fill="#ece6d8" opacity="0.58" style="animation-delay:2.8s"/><circle class="tw" cx="108.5" cy="59.5" r="0.8" fill="#ece6d8" opacity="0.52" style="animation-delay:0.2s"/><circle class="" cx="732.1" cy="201.1" r="1.0" fill="#ece6d8" opacity="0.41" style="animation-delay:3.9s"/><circle class="tw" cx="657.6" cy="50.4" r="0.6" fill="#ece6d8" opacity="0.58" style="animation-delay:4.8s"/><circle class="" cx="172.9" cy="327.6" r="0.8" fill="#ece6d8" opacity="0.34" style="animation-delay:5.0s"/><circle class="tw" cx="163.2" cy="302.8" r="0.8" fill="#ece6d8" opacity="0.55" style="animation-delay:5.4s"/><circle class="" cx="973.0" cy="175.4" r="1.3" fill="#ece6d8" opacity="0.32" style="animation-delay:0.8s"/><circle class="" cx="612.5" cy="290.8" r="0.8" fill="#ece6d8" opacity="0.60" style="animation-delay:3.7s"/><circle class="tw" cx="185.4" cy="53.9" r="1.3" fill="#ece6d8" opacity="0.50" style="animation-delay:4.4s"/><circle class="" cx="665.6" cy="262.1" r="0.6" fill="#ece6d8" opacity="0.28" style="animation-delay:5.3s"/><circle class="tw" cx="234.5" cy="21.7" r="0.6" fill="#ece6d8" opacity="0.50" style="animation-delay:3.0s"/><circle class="" cx="907.8" cy="303.6" r="1.0" fill="#ece6d8" opacity="0.69" style="animation-delay:2.0s"/><circle class="" cx="725.7" cy="72.6" r="0.8" fill="#ece6d8" opacity="0.49" style="animation-delay:2.7s"/><circle class="tw" cx="574.0" cy="313.0" r="1.3" fill="#ece6d8" opacity="0.67" style="animation-delay:5.3s"/><circle class="" cx="1124.8" cy="280.2" r="0.8" fill="#ece6d8" opacity="0.43" style="animation-delay:2.5s"/><circle class="" cx="366.5" cy="47.6" r="0.8" fill="#ece6d8" opacity="0.54" style="animation-delay:5.6s"/><circle class="" cx="892.1" cy="38.5" r="1.0" fill="#ece6d8" opacity="0.55" style="animation-delay:1.0s"/><circle class="" cx="1185.0" cy="138.8" r="1.0" fill="#ece6d8" opacity="0.39" style="animation-delay:1.2s"/><circle class="" cx="863.0" cy="14.3" r="1.3" fill="#ece6d8" opacity="0.57" style="animation-delay:2.8s"/><circle class="" cx="357.8" cy="319.3" r="0.6" fill="#ece6d8" opacity="0.60" style="animation-delay:5.9s"/><circle class="" cx="1158.5" cy="41.9" r="0.8" fill="#ece6d8" opacity="0.66" style="animation-delay:1.6s"/><circle class="" cx="978.6" cy="283.3" r="0.8" fill="#ece6d8" opacity="0.49" style="animation-delay:2.4s"/><circle class="" cx="954.7" cy="67.4" r="0.6" fill="#ece6d8" opacity="0.26" style="animation-delay:1.6s"/><circle class="tw" cx="728.1" cy="80.1" r="0.8" fill="#ece6d8" opacity="0.45" style="animation-delay:5.2s"/><circle class="" cx="1105.2" cy="94.8" r="0.8" fill="#ece6d8" opacity="0.57" style="animation-delay:0.3s"/><circle class="tw" cx="1118.7" cy="322.0" r="0.8" fill="#ece6d8" opacity="0.34" style="animation-delay:0.3s"/><circle class="" cx="907.2" cy="101.9" r="1.3" fill="#ece6d8" opacity="0.37" style="animation-delay:4.0s"/><circle class="tw" cx="959.6" cy="330.2" r="0.6" fill="#ece6d8" opacity="0.58" style="animation-delay:0.1s"/><circle class="" cx="660.4" cy="69.4" r="1.0" fill="#ece6d8" opacity="0.45" style="animation-delay:1.5s"/><circle class="" cx="787.5" cy="218.6" r="1.0" fill="#ece6d8" opacity="0.65" style="animation-delay:3.3s"/><circle class="tw" cx="1156.8" cy="107.7" r="0.8" fill="#ece6d8" opacity="0.40" style="animation-delay:5.9s"/><circle class="" cx="993.4" cy="237.0" r="0.8" fill="#ece6d8" opacity="0.41" style="animation-delay:2.4s"/><circle class="" cx="72.4" cy="50.1" r="0.6" fill="#ece6d8" opacity="0.65" style="animation-delay:3.8s"/><circle class="tw" cx="518.0" cy="25.9" r="1.0" fill="#ece6d8" opacity="0.55" style="animation-delay:5.2s"/><circle class="" cx="319.7" cy="319.6" r="1.3" fill="#ece6d8" opacity="0.27" style="animation-delay:1.9s"/><circle class="" cx="1052.7" cy="78.6" r="0.8" fill="#ece6d8" opacity="0.42" style="animation-delay:0.0s"/><circle class="" cx="57.3" cy="15.3" r="0.8" fill="#ece6d8" opacity="0.29" style="animation-delay:3.8s"/><circle class="" cx="1141.8" cy="284.5" r="0.8" fill="#ece6d8" opacity="0.57" style="animation-delay:3.9s"/><circle class="tw" cx="1048.8" cy="134.2" r="0.8" fill="#ece6d8" opacity="0.47" style="animation-delay:4.3s"/><circle class="tw" cx="854.6" cy="174.2" r="1.0" fill="#ece6d8" opacity="0.62" style="animation-delay:4.4s"/><circle class="tw" cx="960.7" cy="275.8" r="1.3" fill="#ece6d8" opacity="0.57" style="animation-delay:4.8s"/><circle class="" cx="1140.0" cy="216.3" r="0.6" fill="#ece6d8" opacity="0.31" style="animation-delay:0.2s"/><circle class="" cx="435.1" cy="42.0" r="1.0" fill="#ece6d8" opacity="0.53" style="animation-delay:3.4s"/><circle class="tw" cx="749.5" cy="228.5" r="1.0" fill="#ece6d8" opacity="0.46" style="animation-delay:1.6s"/><circle class="" cx="91.0" cy="310.1" r="1.3" fill="#ece6d8" opacity="0.49" style="animation-delay:0.6s"/><circle class="" cx="890.9" cy="161.5" r="0.6" fill="#ece6d8" opacity="0.36" style="animation-delay:5.1s"/><circle class="tw" cx="903.6" cy="82.8" r="1.0" fill="#ece6d8" opacity="0.42" style="animation-delay:3.0s"/><circle class="" cx="916.1" cy="207.9" r="0.8" fill="#ece6d8" opacity="0.32" style="animation-delay:0.5s"/><circle class="" cx="22.8" cy="27.7" r="0.8" fill="#ece6d8" opacity="0.29" style="animation-delay:5.8s"/><circle class="" cx="847.3" cy="100.5" r="1.0" fill="#ece6d8" opacity="0.30" style="animation-delay:2.8s"/>
      <g fill="none" stroke-linecap="round">
        <path d="M 725 172 a 210 64 0 1 0 420 0 a 210 64 0 1 0 -420 0" stroke="#d9b36c" stroke-opacity=".35" stroke-dasharray="2 7" transform="rotate(-12 935 172)"/>
        <path d="M 807 172 a 128 40 0 1 1 256 0 a 128 40 0 1 1 -256 0" stroke="#7aa2f7" stroke-opacity=".28" stroke-dasharray="1 5" transform="rotate(8 935 172)"/>
      </g>
      <circle cx="935" cy="172" r="46" fill="url(#planet)"/>
      <ellipse cx="935" cy="172" rx="78" ry="14" fill="none" stroke="#f1d79c" stroke-opacity=".55" stroke-width="1.4" transform="rotate(-18 935 172)"/>
      <g transform="rotate(-12 935 172)">
        <g>
          <rect x="-9" y="-3" width="7" height="6" rx="1" fill="#7aa2f7"/>
          <rect x="2" y="-3" width="7" height="6" rx="1" fill="#7aa2f7"/>
          <rect x="-2.5" y="-4" width="5" height="8" rx="1.2" fill="#ece6d8"/>
          <animateMotion dur="22s" repeatCount="indefinite" rotate="auto" path="M 725 172 a 210 64 0 1 0 420 0 a 210 64 0 1 0 -420 0"/>
        </g>
      </g>
      <g transform="rotate(8 935 172)">
        <circle r="3.2" fill="#f1d79c">
          <animateMotion dur="13s" repeatCount="indefinite" path="M 807 172 a 128 40 0 1 1 256 0 a 128 40 0 1 1 -256 0" keyPoints="1;0" keyTimes="0;1" calcMode="linear"/>
        </circle>
      </g>
      <g transform="translate(72 0)">
        <text class="eyebrow in d1" x="0" y="104">SOFTWARE DEVELOPER · INDRA ESPACIO</text>
        <path class="line" d="M0 122 H220" stroke="url(#hair)" stroke-width="1.5"/>
        <text class="name in d2" x="-3" y="186">Adrián Jiménez Santiago</text>
        <text class="sub in d3" x="0" y="226">Clean, reliable software, from backend services to the browser.</text>
        <text class="meta in d4" x="0" y="272"><tspan fill="#d9b36c">◆</tspan><tspan dx="10">Málaga, España</tspan><tspan dx="22" fill="#d9b36c">◆</tspan><tspan dx="10">Java · Spring · Angular · Python</tspan></text>
      </g>
      <rect x=".5" y=".5" width="1199" height="339" rx="18" fill="none" stroke="#232c3a"/>
    </g>
    </svg>
